<?xml version="1.0" standalone="no"?>
<!DOCTYPE svg PUBLIC "-//W3C//DTD SVG 1.1//EN" "http://www.w3.org/Graphics/SVG/1.1/DTD/svg11.dtd">
<svg xmlns="http://www.w3.org/2000/svg" id="Layer_1" data-name="Layer 1" viewBox="0 0 1113.59 460.13" width="1113.5899658203125" height="460.1300048828125"><defs><style>.cls-1{fill:#4c1821;}.cls-2{fill:#c3002f;}.cls-3{fill:#f42534;}.cls-4{fill:#d82237;}.cls-5{fill:#911a1d;}.cls-6{fill:#a41f35;}.cls-7{fill:#d6202a;}.cls-8{fill:#ac162c;}.cls-9{fill:#eb0029;}</style></defs><title>logo-horiz</title><path class="cls-1" d="M539.25,174.21H476a5.42,5.42,0,0,0-5.42,5.42v14.15h55.06a5.42,5.42,0,0,1,5.42,5.42v26.3a5.42,5.42,0,0,1-5.42,5.42H476a5.42,5.42,0,0,0-5.42,5.42v41.42a5.42,5.42,0,0,1-5.42,5.42H431.57a5.42,5.42,0,0,1-5.42-5.42V140.27a5.42,5.42,0,0,1,5.42-5.42H539.25a5.42,5.42,0,0,1,5.42,5.42v28.52A5.42,5.42,0,0,1,539.25,174.21Z"/><path class="cls-1" d="M607.34,283.17H572.14a5.42,5.42,0,0,1-5.42-5.42V140.27a5.42,5.42,0,0,1,5.42-5.42h35.19a5.42,5.42,0,0,1,5.42,5.42V277.75A5.42,5.42,0,0,1,607.34,283.17Z"/><path class="cls-1" d="M683.43,243.81H744a5.44,5.44,0,0,1,5.44,5.44v28.49a5.44,5.44,0,0,1-5.44,5.44H642.84a5.44,5.44,0,0,1-5.44-5.44V140.29a5.44,5.44,0,0,1,5.44-5.44H678a5.44,5.44,0,0,1,5.44,5.44Z"/><path class="cls-1" d="M883.4,172h-69a5.73,5.73,0,0,0-5.73,5.73v12.23a.06.06,0,0,0,.06.06h64.7a5.73,5.73,0,0,1,5.73,5.73v22.56a5.73,5.73,0,0,1-5.73,5.73h-59a5.73,5.73,0,0,0-5.73,5.73v14.06H887a5.73,5.73,0,0,1,5.73,5.73v27.9a5.73,5.73,0,0,1-5.73,5.73H769.89a5.73,5.73,0,0,1-5.73-5.73V140.58a5.73,5.73,0,0,1,5.73-5.73H883.4a5.73,5.73,0,0,1,5.73,5.73v25.67A5.73,5.73,0,0,1,883.4,172Z"/><path class="cls-1" d="M993,178.88a5.44,5.44,0,0,1-5-3.13c-3-6.81-8.5-10.21-16.86-10.21-8.89,0-15.56,3.78-15.56,8.89,0,3.78,2.45,6,8.45,7.78l28.24,8.23c34,9.79,46.7,22,46.7,45.14,0,30.46-26.24,50.92-65.6,50.92-23.35,0-42.91-7.56-55.14-21.13-6.44-7.19-9.81-14.55-11.36-25.64a5.42,5.42,0,0,1,5.38-6.15h34.88a5.45,5.45,0,0,1,5.26,4.19c2.11,8.48,9.74,13.15,21.88,13.15,11.34,0,19.35-4.67,19.35-11.34,0-4.45-3.33-7.12-12.45-10l-29.35-9.12c-16.46-5.11-25.57-10.45-32-18.23a39.88,39.88,0,0,1-8.67-24.91c0-27.35,24.68-45.81,60.93-45.81,23.35,0,40.91,6.89,50.7,19.79,5,6.26,7.35,12.22,8.53,21.41a5.44,5.44,0,0,1-5.37,6.16Z"/><path class="cls-2" d="M581.35,362.22a2.28,2.28,0,0,1-2.21-1.74l-7.06-29.32c.08,2.37.08,2.44.08,3.89,0,.69,0,2.59.08,5.65v19.24a2.28,2.28,0,0,1-2.28,2.28h-9.41a2.28,2.28,0,0,1-2.28-2.28V313.6a2.28,2.28,0,0,1,2.28-2.28H577a2.28,2.28,0,0,1,2.21,1.73l6.29,25.59,6.29-25.59a2.28,2.28,0,0,1,2.21-1.73h16.47a2.28,2.28,0,0,1,2.28,2.28v46.35a2.28,2.28,0,0,1-2.28,2.28h-9.41a2.28,2.28,0,0,1-2.28-2.28V342.23l.08-5c0-1.83,0-2.59.08-6l-7.06,29.32a2.28,2.28,0,0,1-2.21,1.74Z"/><path class="cls-2" d="M552.28,337.11c0,15.41-10.84,26.25-26.25,26.25s-26.17-10.84-26.17-26.63,10.68-26.56,26.17-26.56C541.82,310.18,552.28,320.94,552.28,337.11Zm-36.63-.38c0,8.47,4,13.89,10.45,13.89,6.26,0,10.38-5.42,10.38-13.74,0-8.55-4-14-10.45-14S515.65,328.34,515.65,336.73Z"/><path class="cls-2" d="M440.88,349.76V360a2.27,2.27,0,0,1-2.27,2.27h-10.2a2.27,2.27,0,0,1-2.27-2.27v-10.2a2.27,2.27,0,0,1,2.27-2.27h10.2A2.27,2.27,0,0,1,440.88,349.76Z"/><path class="cls-2" d="M481.1,330.13a2.25,2.25,0,0,1-2.17-1.52,8.19,8.19,0,0,0-8.06-5.69c-5.88,0-9.92,5.57-9.92,13.66s4.35,14,10.15,14c4.08,0,6.77-2.31,7.9-6.65a2.25,2.25,0,0,1,2.17-1.67H492.3a2.28,2.28,0,0,1,2.24,2.65,21,21,0,0,1-3.84,9.33c-4.2,5.72-11.37,9.08-19.38,9.08-15,0-25.64-11.29-25.64-27,0-15.19,10.68-26.17,25.49-26.17,11.23,0,19.68,6.32,22.69,16.84a2.29,2.29,0,0,1-2.15,2.91Z"/><path class="cls-3" d="M264.85,265l58.76,58.76a3.85,3.85,0,0,0,6.57-2.72V262.32a3.85,3.85,0,0,0-3.85-3.85H267.58A3.85,3.85,0,0,0,264.85,265Z"/><path class="cls-4" d="M211.79,258.47H78.07A3.85,3.85,0,0,0,75.35,265l66.86,66.86a3.85,3.85,0,0,0,5.45,0L214.51,265A3.85,3.85,0,0,0,211.79,258.47Z"/><path class="cls-2" d="M230.55,359.09v-79a3.85,3.85,0,0,0-6.57-2.72l-79,79a3.85,3.85,0,0,0,2.72,6.57h79A3.85,3.85,0,0,0,230.55,359.09Z"/><path class="cls-5" d="M306.37,328.35l-51-51a3.85,3.85,0,0,0-6.57,2.72v102a3.85,3.85,0,0,0,6.57,2.72l51-51A3.85,3.85,0,0,0,306.37,328.35Z"/><path class="cls-6" d="M267.58,243.06H371.44a3.85,3.85,0,0,0,2.72-6.57l-51.93-51.93a3.85,3.85,0,0,0-5.45,0l-51.93,51.93A3.85,3.85,0,0,0,267.58,243.06Z"/><path class="cls-7" d="M248.82,138.59v82.84a3.85,3.85,0,0,0,6.57,2.72l82.84-82.84a3.85,3.85,0,0,0-2.72-6.57H252.67A3.85,3.85,0,0,0,248.82,138.59Z"/><path class="cls-8" d="M116.44,147.71v91.5a3.85,3.85,0,0,0,3.85,3.85h91.5a3.85,3.85,0,0,0,2.72-6.57L123,145A3.85,3.85,0,0,0,116.44,147.71Z"/><path class="cls-9" d="M152.29,152.48,224,224.16a3.85,3.85,0,0,0,6.57-2.72V78.07A3.85,3.85,0,0,0,224,75.35L152.29,147A3.85,3.85,0,0,0,152.29,152.48Z"/></svg>